# xmcd CD database file
#
# Track frame offsets:
#	150
#	18523
#	40164
#	57389
#	72606
#	108775
#	130024
#	155958
#
# Disc length: 2596 seconds
#
# Revision: 1
# Processed by: cddbd v1.4PL0 Copyright (c) Steve Scherf et al.
# Submitted via: CDex 1.51
#
DISCID=6e0a2208
DTITLE=The Fat Daddy Band - From the Soul
DYEAR=2002
DGENRE=Blues
TTITLE0=Hard Drinking Man
TTITLE1=Sweet Tea
TTITLE2=From the Soul
TTITLE3=Bye Bye Baby
TTITLE4=Freight Train
TTITLE5=Butt Print Blues
TTITLE6=List of Things to Do
TTITLE7=The Ballad of Jed Clampett
EXTD=YEAR: 2002
EXTT0=
EXTT1=
EXTT2=
EXTT3=
EXTT4=
EXTT5=
EXTT6=
EXTT7=
PLAYORDER=
